<svg width="112" height="164" viewBox="0 0 112 164" fill="none" xmlns="http://www.w3.org/2000/svg">
<path d="M100.64 16.3112V36.373C100.638 38.0637 99.9655 39.6847 98.77 40.8802C97.5744 42.0757 95.9535 42.7482 94.2628 42.7502H13.2876C12.4495 42.7502 11.6196 42.9154 10.8454 43.2364C10.0712 43.5573 9.36779 44.0277 8.77552 44.6207C8.18324 45.2137 7.71364 45.9176 7.3936 46.6922C7.07356 47.4667 6.90942 48.2968 6.9104 49.1349V121.37C6.9104 123.061 7.58222 124.683 8.77817 125.879C9.97413 127.075 11.5963 127.747 13.2876 127.747H37.4908" stroke="#E8F2FC" stroke-width="3" stroke-linecap="round" stroke-dasharray="17.84 16.79"/>
<path d="M45.756 131.742H52.1332" stroke="#E8F2FC" stroke-width="3" stroke-linecap="round"/>
<path d="M69.0365 121.413C69.0365 121.741 68.9716 122.067 68.8456 122.37C68.7196 122.674 68.5349 122.95 68.3021 123.182C68.0693 123.414 67.793 123.598 67.489 123.723C67.185 123.848 66.8593 123.912 66.5306 123.911C65.868 123.911 65.2326 123.648 64.764 123.179C64.2955 122.711 64.0323 122.075 64.0323 121.413C64.0323 120.749 64.2953 120.113 64.7636 119.643C65.2319 119.174 65.8673 118.909 66.5306 118.907C67.1952 118.907 67.8326 119.171 68.3025 119.641C68.7725 120.111 69.0365 120.748 69.0365 121.413Z" fill="white"/>
<path d="M8.06934 11H103.802C107.706 11.0001 110.871 14.1651 110.871 18.0693V155.391C110.871 159.295 107.706 162.46 103.802 162.46H8.06934C4.1652 162.46 1.00026 159.295 1 155.391V18.0693C1.00009 14.1651 4.16509 11.0001 8.06934 11Z" fill="#A9BAE6" stroke="#070707" stroke-width="2"/>
<path d="M103.854 21.2095H11.7759V154.964H103.854V21.2095Z" fill="#F6F5F5"/>
<path d="M103.854 21.2095C103.882 73.3658 105.566 136.27 99.7073 150.2C73.9027 152.714 43.6867 153.521 11.7747 153.674L23.9049 21.6124L103.854 21.2095Z" fill="#E4E4E4"/>
<path d="M93.9065 145.767C53.6851 152.205 26.8056 152.545 5 150.926C7.82301 120.85 8.95874 70.8848 10.1031 21L58.571 21.1086L102.436 24.0043C103.069 75.7784 103.14 123.604 93.9065 145.767Z" fill="white"/>
<path d="M81.3701 34.6891L32.9319 33.5476L32.7581 40.9256L81.1963 42.0671L81.3701 34.6891Z" fill="#171717"/>
<path d="M90.7073 52.743L47.0159 51.7133L46.9363 55.0902L90.6277 56.1199L90.7073 52.743Z" fill="#171717"/>
<path d="M76.5394 59.7757L46.842 59.0758L46.7624 62.4527L76.4599 63.1526L76.5394 59.7757Z" fill="#D3DFFF"/>
<path d="M33.2481 51.5798L22.9046 51.3361L22.6608 61.6796L33.0043 61.9233L33.2481 51.5798Z" fill="white"/>
<path d="M25.0197 56.1372C25.4107 57.7624 26.1329 64.5708 29.2758 62.667C30.0007 62.234 30.6139 61.0677 31.1565 60.3995L34.0826 56.7997L39.9268 49.5973C40.4269 48.9825 38.2217 47.4395 37.5953 48.2117L32.4001 54.613L29.8025 57.8144C29.2014 58.5548 27.8075 60.9422 26.9203 61.1543L28.3741 61.6638C28.7172 61.9684 28.0801 59.8062 28.0655 59.7471C27.8252 58.7434 27.5836 57.7393 27.3406 56.7348C27.1411 55.9063 24.7298 54.9089 25.025 56.1372H25.0197Z" fill="#5EA500"/>
<path d="M83.0587 72.8479L47.0796 72L47 75.3769L82.9791 76.2248L83.0587 72.8479Z" fill="#171717"/>
<path d="M90.7711 80.8741L47.0676 80L47 83.3778L90.7035 84.2519L90.7711 80.8741Z" fill="#D3DFFF"/>
<path d="M34.7683 74.3959L24.4249 74.1522L24.1811 84.4956L34.5246 84.7394L34.7683 74.3959Z" fill="white"/>
<path d="M25.0197 77.1384C25.4107 78.7634 26.1329 85.5705 29.2758 83.667C30.0007 83.2341 30.6139 82.0681 31.1565 81.3999L34.0826 77.7994L39.9268 70.5998C40.4269 69.985 38.2217 68.4351 37.5953 69.2144L32.4001 75.6145L29.8025 78.8139C29.2014 79.5542 27.8075 81.9425 26.9203 82.1547L28.3741 82.6641C28.7172 82.9686 28.0801 80.8068 28.0668 80.7476C27.8248 79.7442 27.5831 78.7403 27.342 77.7359C27.1411 76.9076 24.7298 75.9104 25.025 77.1384H25.0197Z" fill="#5EA500"/>
<path d="M90.771 95.0296L47.0796 94L47 97.3769L90.6914 98.4066L90.771 95.0296Z" fill="#171717"/>
<path d="M66.6192 102.46L47.0796 102L47 105.377L66.5396 105.837L66.6192 102.46Z" fill="#D3DFFF"/>
<path d="M34.3257 93.1925L23.9822 92.9487L23.7384 103.292L34.0819 103.536L34.3257 93.1925Z" fill="white"/>
<path d="M25.9884 98.1372C26.3793 99.7624 27.1013 106.571 30.2433 104.667C30.968 104.234 31.581 103.068 32.1221 102.399L35.0474 98.7997L40.89 91.5973C41.39 90.9825 39.1854 89.4395 38.5591 90.2117L33.3641 96.613L30.7632 99.8144C30.1622 100.555 28.7687 102.942 27.8818 103.154L29.3365 103.664C29.6782 103.968 29.0426 101.806 29.028 101.747C28.7878 100.744 28.5462 99.7403 28.3033 98.7348C28.1039 97.9063 25.6918 96.9089 25.9884 98.1372Z" fill="#5EA500"/>
<path d="M90.7711 113.874L47.0676 113L47 116.378L90.7035 117.252L90.7711 113.874Z" fill="#171717"/>
<path d="M81.5944 120.813L47.0796 120L47 123.377L81.5148 124.19L81.5944 120.813Z" fill="#D3DFFF"/>
<path d="M33.8816 112.002L23.5381 111.758L23.2943 122.102L33.6378 122.346L33.8816 112.002Z" fill="white"/>
<path d="M24.9764 117.142C25.3676 118.767 26.0902 125.57 29.2348 123.667C29.96 123.234 30.5735 122.069 31.1151 121.402L34.0427 117.796L39.8899 110.599C40.3903 109.985 38.184 108.435 37.5572 109.214L32.358 115.612L29.767 118.817C29.1656 119.557 27.7709 121.945 26.8833 122.155L28.3392 122.665C28.6825 122.97 28.0451 120.809 28.0304 120.75C27.7891 119.746 27.5474 118.743 27.3052 117.74C27.1056 116.91 24.6916 115.913 24.9884 117.142H24.9764Z" fill="#5EA500"/>
<path d="M64.3983 132.408L47.0796 132L47 135.377L64.3187 135.785L64.3983 132.408Z" fill="#171717"/>
<path d="M33.5872 130.649L23.2438 130.405L23 140.749L33.3435 140.992L33.5872 130.649Z" fill="white"/>
<path d="M24.9775 135.143C25.3765 136.767 26.092 143.57 29.2334 141.667C29.9569 141.234 30.5713 140.069 31.1126 139.402L34.0385 135.796L39.8903 128.6C40.389 127.984 38.1853 126.436 37.5576 127.214L32.3628 133.611L29.7654 136.81C29.1642 137.55 27.7704 139.936 26.8833 140.148L28.3383 140.657C28.6801 140.963 28.0444 138.801 28.0298 138.743C27.7877 137.739 27.5461 136.736 27.3049 135.733C27.1054 134.903 24.6929 133.907 24.9881 135.136L24.9775 135.143Z" fill="#5EA500"/>
<path d="M78.3384 15.9479V26.2758H36.8618V15.9479C36.8608 15.164 37.0145 14.3876 37.3141 13.6632C37.6137 12.9388 38.0533 12.2806 38.6077 11.7264C38.7408 11.5925 38.8814 11.4663 39.029 11.3485C40.0961 10.4611 41.4412 9.97686 42.8292 9.98045C43.8848 9.98089 44.9269 9.74337 45.878 9.28555C46.2806 9.09094 46.6644 8.85979 47.0246 8.595C48.2361 7.69874 49.1269 6.43635 49.5653 4.99457C50.0054 3.54967 50.8979 2.28436 52.1115 1.38513C53.3251 0.485902 54.7954 0.000336118 56.3058 0H58.8943C60.4047 0.000336118 61.8751 0.485902 63.0886 1.38513C64.3022 2.28436 65.1948 3.54967 65.6348 4.99457C66.0727 6.44012 66.9652 7.70584 68.1798 8.60368C68.5401 8.86847 68.9239 9.09963 69.3264 9.29424C70.2776 9.75206 71.3197 9.98958 72.3753 9.98913C73.9553 9.99142 75.4701 10.6198 76.5878 11.7367C77.7054 12.8535 78.3349 14.3678 78.3384 15.9479Z" fill="#171717"/>
<path d="M81.7041 21.2095V28.8838H33.4957V21.2095H36.8616V26.2779H78.3382V21.2095H81.7041Z" fill="#E4E4E4"/>
</svg>
