<svg width="537" height="298" viewBox="0 0 537 298" fill="none" xmlns="http://www.w3.org/2000/svg">
<path d="M507.181 230.742H513.558" stroke="#E8F2FC" stroke-width="3" stroke-linecap="round"/>
<path d="M524.64 100.333V106.71" stroke="#E8F2FC" stroke-width="3" stroke-linecap="round"/>
<path d="M524.64 119.311V139.373C524.638 141.064 523.966 142.685 522.77 143.88C521.574 145.076 519.954 145.748 518.263 145.75H437.288C436.45 145.75 435.62 145.915 434.845 146.236C434.071 146.557 433.368 147.028 432.776 147.621C432.183 148.214 431.714 148.918 431.394 149.692C431.074 150.467 430.909 151.297 430.91 152.135V224.37C430.91 226.061 431.582 227.683 432.778 228.879C433.974 230.075 435.596 230.747 437.288 230.747H461.491" stroke="#E8F2FC" stroke-width="3" stroke-linecap="round" stroke-dasharray="17.84 16.79"/>
<path d="M467.793 230.742H474.17" stroke="#E8F2FC" stroke-width="3" stroke-linecap="round"/>
<path d="M2 236.688H8.37718" stroke="#E8F2FC" stroke-width="3" stroke-linecap="round"/>
<path d="M20.2536 236.694H38.1474C39.8407 236.694 41.4646 236.022 42.662 234.824C43.8594 233.627 44.532 232.003 44.532 230.309V204.801C44.531 203.963 44.6952 203.133 45.0152 202.358C45.3353 201.583 45.8049 200.88 46.3972 200.287C46.9894 199.694 47.6928 199.223 48.467 198.902C49.2412 198.581 50.071 198.416 50.9091 198.416H71.1661C72.8574 198.416 74.4795 197.744 75.6755 196.548C76.8715 195.352 77.5433 193.73 77.5433 192.039V176.636C77.5413 176.076 77.6498 175.52 77.8625 175.001C78.0752 174.483 78.388 174.011 78.783 173.613C79.1781 173.215 79.6476 172.899 80.1648 172.683C80.682 172.466 81.2367 172.354 81.7973 172.352H114.306C115.434 172.352 116.516 171.904 117.314 171.106C118.112 170.308 118.56 169.226 118.56 168.098V118.836C118.56 117.708 118.112 116.626 117.314 115.828C116.516 115.031 115.434 114.582 114.306 114.582H54.9081C53.7799 114.582 52.6979 114.134 51.9001 113.336C51.1023 112.539 50.6541 111.457 50.6541 110.328V91.572C50.6541 89.8787 51.3268 88.2547 52.5241 87.0573C53.7215 85.86 55.3455 85.1873 57.0388 85.1873H366.475C367.313 85.1883 368.142 85.024 368.916 84.7039C369.691 84.3838 370.394 83.914 370.986 83.3217C371.579 82.7293 372.048 82.0259 372.369 81.2517C372.689 80.4776 372.853 79.6479 372.852 78.8101V57.5928C372.854 55.9008 373.528 54.2788 374.725 53.0831C375.922 51.8873 377.545 51.2157 379.237 51.2157H528.778C530.469 51.2176 532.09 51.8902 533.285 53.0857C534.481 54.2812 535.153 55.9021 535.155 57.5928V93.2601" stroke="#E8F2FC" stroke-width="3" stroke-linecap="round" stroke-dasharray="16.82 15.83"/>
<path d="M535.143 99.2077V105.585" stroke="#E8F2FC" stroke-width="3" stroke-linecap="round"/>
<path d="M491.073 220.413C491.073 220.741 491.008 221.067 490.882 221.37C490.756 221.674 490.572 221.95 490.339 222.182C490.106 222.414 489.83 222.598 489.526 222.723C489.222 222.848 488.896 222.912 488.567 222.911C487.905 222.911 487.269 222.648 486.801 222.179C486.332 221.711 486.069 221.075 486.069 220.413C486.069 219.749 486.332 219.113 486.8 218.643C487.269 218.174 487.904 217.909 488.567 217.907C489.232 217.907 489.869 218.171 490.339 218.641C490.809 219.111 491.073 219.748 491.073 220.413Z" fill="white"/>
<path d="M130.294 77.9628C129.377 77.9624 128.471 78.1678 127.644 78.5638C126.817 78.9599 126.089 79.5364 125.514 80.2511C124.94 79.5356 124.213 78.9584 123.386 78.5623C122.558 78.1662 121.653 77.9613 120.735 77.9628C119.928 77.9628 119.128 78.122 118.382 78.4312C117.636 78.7405 116.958 79.1938 116.388 79.7652C115.817 80.3365 115.365 81.0148 115.056 81.7611C114.748 82.5075 114.59 83.3073 114.591 84.1149C114.591 89.5618 122.678 94.2884 125.274 94.6185C125.433 94.6443 125.595 94.6443 125.755 94.6185C128.35 94.2809 136.446 89.5543 136.446 84.1149C136.446 83.307 136.287 82.507 135.977 81.7606C135.668 81.0142 135.215 80.336 134.644 79.7647C134.072 79.1934 133.394 78.7403 132.648 78.4311C131.901 78.1219 131.102 77.9628 130.294 77.9628Z" fill="#A9BAE6"/>
<path d="M54.6153 164.981C54.6678 164.836 54.7638 164.711 54.8899 164.622C55.0161 164.534 55.1664 164.486 55.3205 164.486C55.4746 164.486 55.6249 164.534 55.7511 164.622C55.8773 164.711 55.9732 164.836 56.0258 164.981L58.5691 170.127C58.6763 170.349 58.8363 170.541 59.0352 170.686C59.2341 170.832 59.4657 170.926 59.7095 170.96L65.3965 171.786C65.5417 171.807 65.6779 171.869 65.79 171.963C65.9021 172.058 65.9854 172.182 66.0307 172.322C66.0759 172.462 66.0812 172.611 66.0461 172.754C66.0109 172.896 65.9366 173.026 65.8316 173.128L61.7202 177.142C61.543 177.313 61.4107 177.525 61.3348 177.759C61.2589 177.994 61.2419 178.243 61.2851 178.485L62.2528 184.142C62.2789 184.288 62.2634 184.438 62.2081 184.575C62.1527 184.713 62.0598 184.832 61.94 184.919C61.8202 185.005 61.6783 185.057 61.5306 185.067C61.3829 185.077 61.2355 185.045 61.105 184.975L56.0258 182.304C55.8087 182.189 55.5664 182.128 55.3205 182.128C55.0745 182.128 54.8324 182.189 54.6153 182.304L49.5285 184.975C49.4006 185.062 49.249 185.107 49.0946 185.104C48.9401 185.101 48.7903 185.051 48.6655 184.96C48.5407 184.869 48.4472 184.741 48.3975 184.595C48.3479 184.449 48.3446 184.29 48.3881 184.142L49.356 178.485C49.3992 178.243 49.382 177.994 49.3061 177.759C49.2303 177.525 49.098 177.313 48.9208 177.142L44.8094 173.128C44.7043 173.026 44.6301 172.896 44.595 172.754C44.5598 172.611 44.5651 172.462 44.6103 172.322C44.6556 172.182 44.7389 172.058 44.8509 171.963C44.963 171.869 45.0994 171.807 45.2446 171.786L50.9315 170.96C51.1753 170.926 51.4069 170.832 51.6058 170.686C51.8047 170.541 51.9647 170.349 52.0719 170.127L54.6153 164.981Z" fill="#EDEDED"/>
<path d="M402.505 174.801L397.644 183.504L392.789 174.801" stroke="black" stroke-width="3" stroke-miterlimit="10" stroke-linecap="round"/>
<path d="M397.643 183.513V149.811" stroke="black" stroke-width="3" stroke-miterlimit="10" stroke-linecap="round"/>
<path d="M97.8904 52.5325C97.0478 51.1506 95.7037 50.1479 94.1391 49.734C93.615 49.596 93.0756 49.5254 92.5336 49.5239H88.5497L82.2701 71.0488C90.6729 69.3532 95.4296 63.7263 98.0705 58.6546C98.5684 57.7045 98.8134 56.6422 98.7818 55.57C98.7503 54.4978 98.4433 53.4517 97.8904 52.5325ZM95.6396 57.3717C93.3888 62.1058 89.39 65.9171 84.7084 67.3501L88.4072 52.3449H92.5786C92.8776 52.3469 93.1752 52.3873 93.4639 52.465C94.3297 52.6897 95.073 53.2445 95.5346 54.0105C95.8286 54.5193 95.9895 55.094 96.0026 55.6815C96.0157 56.2689 95.8806 56.8502 95.6096 57.3717H95.6396Z" fill="#FBC349"/>
<path d="M55.0501 49.5239H51.0588C49.9856 49.5235 48.9304 49.7993 47.9948 50.3249C47.0592 50.8506 46.2748 51.6082 45.7169 52.525C45.1617 53.4429 44.8521 54.4883 44.8179 55.5605C44.7838 56.6327 45.0262 57.6957 45.5219 58.6471C48.0127 63.4412 52.3942 68.7155 59.9493 70.7262C60.3919 70.8388 60.8496 70.9513 61.3222 71.0413L55.0501 49.5239ZM47.9977 57.3717C47.7259 56.844 47.5929 56.2558 47.6113 55.6625C47.6296 55.0692 47.7988 54.4903 48.1027 53.9805C48.4119 53.4733 48.846 53.0538 49.3635 52.7622C49.8811 52.4706 50.4647 52.3166 51.0588 52.3149L54.8625 52.4199L58.5238 67.4251C54.1873 65.6019 50.2634 61.7231 47.9977 57.3717Z" fill="#FBC349"/>
<path d="M88.5646 49.5239H92.5484C93.6215 49.5235 94.6768 49.7993 95.6124 50.3249C96.548 50.8506 97.3324 51.6082 97.8902 52.525C98.4455 53.4429 98.7551 54.4883 98.7892 55.5605C98.8234 56.6327 98.581 57.6957 98.0853 58.6471C95.4444 63.7188 90.6878 69.3457 82.2849 71.0413L88.5646 49.5239Z" stroke="#020202" stroke-width="3" stroke-linecap="round" stroke-linejoin="round"/>
<path d="M55.0506 49.5239H51.0592C49.9861 49.5235 48.9309 49.7993 47.9953 50.3249C47.0597 50.8506 46.2752 51.6082 45.7174 52.525C45.1615 53.444 44.8516 54.4907 44.8174 55.5642C44.7833 56.6378 45.026 57.7021 45.5223 58.6546C48.1632 63.7263 52.9198 69.3457 61.3227 71.0488L55.0506 49.5239Z" stroke="#020202" stroke-width="3" stroke-linecap="round" stroke-linejoin="round"/>
<path d="M76.2753 77.7739H67.3398V90.6183H76.2753V77.7739Z" fill="#FBC349"/>
<path d="M85.1282 92.9554C83.6277 89.0916 79.1862 88.0638 73.9194 88.0638H69.6954C64.4436 88.0638 59.9421 89.0916 58.4791 92.9554C58.1138 94.2359 57.9368 95.5628 57.9539 96.8943V97.2394H85.6609V96.8943C85.6756 95.5624 85.4962 94.2355 85.1282 92.9554Z" fill="#FBC349" stroke="black" stroke-width="3" stroke-miterlimit="10"/>
<path d="M71.8034 80.3478C80.949 80.3478 88.429 64.2998 89.0593 44.0054H54.5924C55.1701 64.3073 62.6727 80.3478 71.8034 80.3478Z" fill="#FBC349"/>
<path d="M89.0372 44.0054H80.9269C80.0491 61.6814 73.9496 75.7787 66.1844 78.2321C67.7661 79.5496 69.746 80.2951 71.8039 80.3478C80.9495 80.3478 88.4295 64.2998 89.0372 44.0054Z" fill="#FBC349"/>
<path d="M71.8034 80.3478C80.949 80.3478 88.429 64.2998 89.0593 44.0054H54.5924C55.1701 64.3073 62.6727 80.3478 71.8034 80.3478Z" stroke="#020202" stroke-width="3" stroke-linecap="round" stroke-linejoin="round"/>
<path d="M143.949 120.341C149.756 112.441 165.188 87.2844 165.188 87.2844C167.439 85.0336 172.969 81.4699 177.35 85.0336C181.732 88.5973 177.2 99.6561 177.2 99.6561C180.036 96.4075 189.047 84.5534 195.041 90.9381C199.363 95.5372 195.446 100.872 195.446 100.872C196.487 100.016 197.807 99.5737 199.154 99.6291C200.5 99.6844 201.779 100.234 202.746 101.172C207.3 105.216 202.131 112.118 202.131 112.118L199.258 116.747C199.258 116.747 202.259 114.436 205.747 118.165C208.921 121.541 204.569 127.626 204.569 127.626L187.554 154.282C187.599 163.285 187.554 166.572 187.554 173.842C187.554 191.675 178.018 194.008 178.018 194.008V223.269L137.174 223.373V143.096C137.174 143.096 136.341 130.709 143.949 120.341Z" fill="white"/>
<path d="M179.233 89.1134C179.203 88.346 179.021 87.5922 178.698 86.8956C178.375 86.1989 177.917 85.5732 177.35 85.0546C173.757 82.1135 169.398 83.9892 166.697 85.9924C169.638 90.2913 165.699 99.6771 165.699 99.6771C167.912 97.1487 173.869 89.3835 179.233 89.1134Z" fill="#DEDEDE"/>
<path d="M143.949 120.341C149.756 112.441 165.188 87.2844 165.188 87.2844C167.439 85.0336 172.969 81.4699 177.35 85.0336C181.732 88.5973 177.2 99.6561 177.2 99.6561C180.036 96.4075 189.047 84.5534 195.041 90.9381C199.363 95.5372 195.446 100.872 195.446 100.872C196.487 100.016 197.807 99.5737 199.154 99.6291C200.5 99.6844 201.779 100.234 202.746 101.172C207.3 105.216 202.131 112.118 202.131 112.118L199.258 116.747C199.258 116.747 202.259 114.436 205.747 118.165C208.921 121.541 204.569 127.626 204.569 127.626L187.554 154.282C187.599 163.285 187.554 166.572 187.554 173.842C187.554 191.675 178.018 194.008 178.018 194.008V223.269L137.174 223.373V143.096C137.174 143.096 136.341 130.709 143.949 120.341Z" stroke="black" stroke-width="3"/>
<path d="M161.925 45.1022C161.931 40.1892 163.885 35.4792 167.359 32.0052C170.833 28.5311 175.543 26.5768 180.456 26.5709H320.334C325.248 26.5748 329.96 28.5283 333.436 32.0025C336.911 35.4767 338.867 40.1879 338.873 45.1022V127.173C338.867 132.087 336.911 136.798 333.436 140.273C329.96 143.747 325.248 145.7 320.334 145.704H180.464C175.551 145.698 170.84 143.744 167.366 140.27C163.892 136.796 161.938 132.086 161.932 127.173L161.925 45.1022Z" fill="white"/>
<path d="M180.463 26.5709C175.55 26.5768 170.84 28.5311 167.366 32.0052C163.892 35.4792 161.938 40.1892 161.932 45.1022V127.173C161.938 132.086 163.892 136.796 167.366 140.27C170.84 143.744 175.55 145.698 180.463 145.704H320.341C325.255 145.7 329.967 143.747 333.443 140.273C336.919 136.798 338.874 132.087 338.88 127.173V45.1022C338.874 40.1879 336.919 35.4767 333.443 32.0025C329.967 28.5283 325.255 26.5748 320.341 26.5709H180.463Z" fill="white" stroke="black" stroke-width="3"/>
<path d="M316.297 26.1767H173.339V146.009H316.297V26.1767Z" fill="#5EA500"/>
<path d="M222.817 68.4506C223.166 67.0715 223.016 65.7949 222.368 64.5675C222.057 63.9812 221.637 63.4685 221.134 63.0606C220.631 62.6526 220.055 62.358 219.441 62.1947C219.012 62.0685 218.569 62.0031 218.123 62C217.31 62.0023 216.512 62.2369 215.813 62.6793L195.406 75.0764C193.789 76.0569 193 77.5107 193 79.5188C193 81.5013 193.785 82.9419 195.406 83.9244L215.799 96.3502C216.527 96.7842 217.349 97.0081 218.184 96.9998C220.052 96.9998 221.418 96.1596 222.355 94.4476C222.677 93.8644 222.883 93.2176 222.962 92.5467C223.041 91.8757 222.991 91.1947 222.814 90.5451C222.467 89.1753 221.731 88.1702 220.56 87.4714L207.469 79.524L220.56 71.5324C221.118 71.2163 221.608 70.7784 221.997 70.2474C222.386 69.7164 222.665 69.1042 222.817 68.4506Z" fill="#FBC349" stroke="#171717" stroke-width="2.5" stroke-linejoin="round"/>
<path d="M289.591 75.0716L269.197 62.6824C268.485 62.2397 267.676 62.0044 266.852 62C266.406 62.0027 265.961 62.0682 265.531 62.1947C264.24 62.5656 263.295 63.3371 262.643 64.5512C262.322 65.1345 262.115 65.7815 262.036 66.4527C261.957 67.1239 262.008 67.8051 262.184 68.4549C262.532 69.8247 263.267 70.8299 264.44 71.5286L277.524 79.5204L264.435 87.4711C263.269 88.1678 262.534 89.173 262.186 90.5449C262.01 91.1928 261.96 91.8722 262.038 92.5415C262.116 93.2109 262.322 93.8563 262.642 94.4383C263.564 96.1596 264.928 96.9997 266.816 96.9997C267.646 97.0086 268.465 96.7868 269.19 96.3563L289.594 83.923C291.211 82.9425 292 81.5019 292 79.5173C291.993 77.506 291.208 76.0522 289.591 75.0716Z" fill="#FBC349" stroke="#171717" stroke-width="2.5" stroke-linejoin="round"/>
<path d="M251.223 50.1396C250.814 50.0488 250.394 50.0019 249.971 50C249.108 50 248.295 50.2043 247.474 50.6307C246.291 51.2266 245.553 52.0778 245.213 53.2405L230.164 104.719C229.825 105.881 230.01 106.938 230.736 107.962C231.433 108.969 232.428 109.59 233.814 109.869C234.194 109.958 234.587 110.002 234.982 110C236.08 110.013 237.15 109.698 238.006 109.108C238.894 108.536 239.526 107.72 239.797 106.797L254.847 55.2987C255.009 54.7589 255.043 54.1967 254.946 53.6454C254.85 53.0942 254.625 52.5651 254.285 52.0897C253.561 51.064 252.56 50.4307 251.223 50.1396Z" fill="#FBC349" stroke="#171717" stroke-width="2.5" stroke-linejoin="round"/>
<path d="M161.925 45.1022C161.931 40.1892 163.885 35.4792 167.359 32.0052C170.833 28.5311 175.543 26.5768 180.456 26.5709H320.334C325.248 26.5748 329.96 28.5283 333.436 32.0025C336.911 35.4767 338.867 40.1879 338.873 45.1022V127.173C338.867 132.087 336.911 136.798 333.436 140.273C329.96 143.747 325.248 145.7 320.334 145.704H180.464C175.551 145.698 170.84 143.744 167.366 140.27C163.892 136.796 161.938 132.086 161.932 127.173L161.925 45.1022Z" stroke="black" stroke-width="3"/>
<path d="M319.384 86.3168C319.383 87.0317 319.523 87.7398 319.796 88.4006C320.069 89.0614 320.47 89.6619 320.975 90.1678C321.48 90.6737 322.08 91.075 322.74 91.3488C323.401 91.6227 324.109 91.7636 324.824 91.7636C326.268 91.7616 327.652 91.1871 328.673 90.1661C329.694 89.145 330.269 87.7607 330.271 86.3168C330.271 85.6012 330.131 84.8925 329.858 84.2312C329.584 83.5699 329.183 82.969 328.677 82.463C328.171 81.9571 327.57 81.5559 326.909 81.2825C326.248 81.0091 325.539 80.8689 324.824 80.8699C324.108 80.8689 323.4 81.0091 322.739 81.2826C322.078 81.5561 321.478 81.9574 320.973 82.4635C320.467 82.9696 320.067 83.5705 319.794 84.2317C319.522 84.893 319.382 85.6015 319.384 86.3168Z" fill="white" stroke="black" stroke-width="3"/>
<path d="M147.144 149.903L176.862 122.091C176.862 122.091 182.361 115.736 187.981 121.175C192.76 125.797 189.819 132.234 186.773 135.715L168.692 158.043V173.348C168.692 173.348 169.6 183.214 165.691 187.521C163.669 189.856 161.088 191.64 158.188 192.705" fill="white"/>
<path d="M147.144 149.903L176.862 122.091C176.862 122.091 182.361 115.736 187.981 121.175C192.76 125.797 189.819 132.234 186.773 135.715L168.692 158.043V173.348C168.692 173.348 169.6 183.214 165.691 187.521C163.669 189.856 161.088 191.64 158.188 192.705" stroke="black" stroke-width="3" stroke-linecap="round"/>
<path d="M181.964 229.35C182.138 229.351 182.311 229.317 182.472 229.251C182.633 229.184 182.779 229.086 182.902 228.963C183.025 228.839 183.122 228.692 183.188 228.531C183.253 228.369 183.286 228.196 183.284 228.022L183.224 207.18C183.222 206.829 183.081 206.493 182.833 206.246C182.584 205.998 182.247 205.859 181.896 205.859L132.792 206.002C132.441 206.004 132.105 206.145 131.858 206.394C131.61 206.642 131.471 206.979 131.471 207.33L131.539 228.18C131.54 228.353 131.575 228.525 131.642 228.684C131.71 228.844 131.808 228.989 131.931 229.111C132.054 229.233 132.2 229.329 132.361 229.395C132.522 229.46 132.693 229.494 132.867 229.493L181.964 229.35Z" fill="white"/>
<path d="M181.964 229.35C182.138 229.351 182.311 229.317 182.472 229.251C182.633 229.184 182.779 229.086 182.902 228.963C183.025 228.839 183.122 228.692 183.188 228.531C183.253 228.369 183.286 228.196 183.284 228.022L183.224 207.18C183.222 206.829 183.081 206.493 182.833 206.246C182.584 205.998 182.247 205.859 181.896 205.859L132.792 206.002C132.441 206.004 132.105 206.145 131.858 206.394C131.61 206.642 131.471 206.979 131.471 207.33L131.539 228.18C131.54 228.353 131.575 228.525 131.642 228.684C131.71 228.844 131.808 228.989 131.931 229.111C132.054 229.233 132.2 229.329 132.361 229.395C132.522 229.46 132.693 229.494 132.867 229.493L181.964 229.35Z" stroke="black" stroke-width="3"/>
<path d="M189.399 294.445L189.279 224.746C189.279 224.572 189.244 224.399 189.178 224.239C189.111 224.078 189.013 223.932 188.889 223.809C188.766 223.687 188.62 223.59 188.459 223.524C188.297 223.458 188.125 223.424 187.951 223.425L129.986 223.59C129.636 223.594 129.302 223.736 129.057 223.985C128.811 224.233 128.673 224.569 128.673 224.918L128.793 294.617L189.399 294.445Z" fill="white"/>
<path d="M189.399 294.445L189.279 224.746C189.279 224.572 189.244 224.399 189.178 224.239C189.111 224.078 189.013 223.932 188.889 223.809C188.766 223.687 188.62 223.59 188.459 223.524C188.297 223.458 188.125 223.424 187.951 223.425L129.986 223.59C129.636 223.594 129.302 223.736 129.057 223.985C128.811 224.233 128.673 224.569 128.673 224.918L128.793 294.617L189.399 294.445Z" stroke="black" stroke-width="3"/>
<path d="M379.072 203.303L369.071 175.904C369.071 175.904 375.396 167.381 369.146 150.238C365.395 139.884 362.581 132.284 362.581 132.284C362.581 132.284 362.154 131.009 361.373 129.185L357.067 117.324C355.904 114.038 352.926 111.952 349.122 112.747C346.271 113.347 344.86 115.111 343.96 117.346C343.367 118.254 342.955 117.346 342.955 117.346C341.221 113.828 338.633 112.095 335.302 112.327C331.071 112.627 329.037 114.961 328.55 118.457C328.554 118.62 328.498 118.78 328.392 118.904C328.286 119.029 328.138 119.111 327.977 119.134C327.815 119.157 327.65 119.12 327.513 119.03C327.377 118.94 327.279 118.802 327.237 118.644L327.132 118.532C325.316 115.208 320.987 113.122 317.048 114.555C312.592 116.183 311.046 121.308 312.397 124.879C312.689 125.959 312.584 126.5 311.789 126.785C310.476 127.265 309.771 125.029 309.771 125.029C309.771 125.029 300.768 103.197 297.767 96.5793C296.018 92.828 292.897 85.7681 291.765 84.0049C287.188 77.0126 279.108 83.4197 280.578 88.0413C281.021 89.4218 301.878 151.851 304.714 159.616C305.149 160.801 305.547 161.867 305.937 162.924C297.294 160.786 283.474 157.148 282.619 156.87C276.354 154.837 272.115 156.93 270.135 160.284C268.154 163.637 270.045 167.681 272.723 169.714C281.441 174.058 301.015 181.516 311.264 185.702C320.544 189.401 327.597 190.774 332.781 191.074L342.212 216.898L379.072 203.303Z" fill="white"/>
<path d="M379.072 203.303L369.071 175.904C369.071 175.904 375.396 167.381 369.146 150.238C365.395 139.884 362.581 132.284 362.581 132.284C362.581 132.284 362.154 131.009 361.373 129.185L357.067 117.324C355.904 114.038 352.926 111.952 349.122 112.747C346.271 113.347 344.86 115.111 343.96 117.346C343.367 118.254 342.955 117.346 342.955 117.346C341.221 113.828 338.633 112.095 335.302 112.327C331.071 112.627 329.037 114.961 328.55 118.457C328.554 118.62 328.498 118.78 328.392 118.904C328.286 119.029 328.138 119.111 327.977 119.134C327.815 119.157 327.65 119.12 327.513 119.03C327.377 118.94 327.279 118.802 327.237 118.644L327.132 118.532C325.316 115.208 320.987 113.122 317.048 114.555C312.592 116.183 311.046 121.308 312.397 124.879C312.689 125.959 312.584 126.5 311.789 126.785C310.476 127.265 309.771 125.029 309.771 125.029C309.771 125.029 300.768 103.197 297.767 96.5793C296.018 92.828 292.897 85.7681 291.765 84.0049C287.188 77.0126 279.108 83.4197 280.578 88.0413C281.021 89.4218 301.878 151.851 304.714 159.616C305.149 160.801 305.547 161.867 305.937 162.924C297.294 160.786 283.474 157.148 282.619 156.87C276.354 154.837 272.115 156.93 270.135 160.284C268.154 163.637 270.045 167.681 272.723 169.714C281.441 174.058 301.015 181.516 311.264 185.702C320.544 189.401 327.597 190.774 332.781 191.074L342.212 216.898L379.072 203.303Z" stroke="black" stroke-width="3"/>
<path d="M339.597 220.549C339.274 220.667 338.918 220.655 338.604 220.515C338.29 220.375 338.043 220.118 337.916 219.799L330.901 200.397C330.842 200.235 330.815 200.062 330.823 199.889C330.831 199.716 330.873 199.547 330.947 199.39C331.021 199.234 331.126 199.094 331.254 198.978C331.383 198.863 331.533 198.774 331.696 198.717L374.506 183.239C374.668 183.18 374.839 183.154 375.011 183.162C375.182 183.17 375.351 183.212 375.506 183.285C375.662 183.359 375.801 183.462 375.917 183.589C376.032 183.716 376.121 183.865 376.179 184.027L383.202 203.428C383.317 203.757 383.299 204.117 383.15 204.432C383.001 204.747 382.734 204.99 382.406 205.109L339.597 220.549Z" fill="white"/>
<path d="M339.597 220.549C339.274 220.667 338.918 220.655 338.604 220.515C338.29 220.375 338.043 220.118 337.916 219.799L330.901 200.397C330.842 200.235 330.815 200.062 330.823 199.889C330.831 199.716 330.873 199.547 330.947 199.39C331.021 199.234 331.126 199.094 331.254 198.978C331.383 198.863 331.533 198.774 331.696 198.717L374.506 183.239C374.668 183.18 374.839 183.154 375.011 183.162C375.182 183.17 375.351 183.212 375.506 183.285C375.662 183.359 375.801 183.462 375.917 183.589C376.032 183.716 376.121 183.865 376.179 184.027L383.202 203.428C383.317 203.757 383.299 204.117 383.15 204.432C383.001 204.747 382.734 204.99 382.406 205.109L339.597 220.549Z" stroke="black" stroke-width="3"/>
<path d="M387.095 198.891C387.037 198.729 386.948 198.58 386.832 198.453C386.717 198.326 386.578 198.223 386.422 198.149C386.267 198.076 386.098 198.034 385.927 198.026C385.755 198.018 385.584 198.044 385.422 198.103L334.097 216.664C333.777 216.788 333.519 217.034 333.379 217.347C333.238 217.66 333.227 218.016 333.347 218.337L360.086 296.004H421.284L387.095 198.891Z" fill="white"/>
<path d="M387.095 198.891C387.037 198.729 386.948 198.58 386.832 198.453C386.717 198.326 386.578 198.223 386.422 198.149C386.267 198.076 386.098 198.034 385.927 198.026C385.755 198.018 385.584 198.044 385.422 198.103L334.097 216.664C333.777 216.788 333.519 217.034 333.379 217.347C333.238 217.66 333.227 218.016 333.347 218.337L360.086 296.004H421.284L387.095 198.891Z" stroke="black" stroke-width="3"/>
<path d="M103.787 237.299C103.808 239.744 103.346 242.168 102.429 244.434C101.512 246.7 100.158 248.763 98.443 250.505C96.7281 252.247 94.6866 253.634 92.4354 254.586C90.1842 255.539 87.7673 256.038 85.3229 256.056C82.8788 256.075 80.4548 255.613 78.1893 254.696C75.9238 253.779 73.8613 252.424 72.1195 250.71C70.3777 248.995 68.9907 246.954 68.0379 244.703C67.0851 242.452 66.5851 240.036 66.5665 237.592C66.5457 235.148 67.007 232.723 67.9239 230.457C68.8409 228.191 70.1955 226.128 71.9103 224.386C73.6251 222.644 75.6666 221.257 77.9179 220.305C80.1691 219.352 82.586 218.853 85.0304 218.835C87.475 218.814 89.8999 219.274 92.1662 220.191C94.4326 221.107 96.496 222.462 98.2382 224.177C99.9804 225.892 101.367 227.934 102.319 230.186C103.271 232.437 103.77 234.855 103.787 237.299Z" fill="#5EA500"/>
<path d="M103.787 237.299C103.808 239.744 103.346 242.168 102.429 244.434C101.512 246.7 100.158 248.763 98.443 250.505C96.7281 252.247 94.6866 253.634 92.4354 254.586C90.1842 255.539 87.7673 256.038 85.3229 256.056C82.8788 256.075 80.4548 255.613 78.1893 254.696C75.9238 253.779 73.8613 252.424 72.1195 250.71C70.3777 248.995 68.9907 246.954 68.0379 244.703C67.0851 242.452 66.5851 240.036 66.5665 237.592C66.5457 235.148 67.007 232.723 67.9239 230.457C68.8409 228.191 70.1955 226.128 71.9103 224.386C73.6251 222.644 75.6666 221.257 77.9179 220.305C80.1691 219.352 82.586 218.853 85.0304 218.835C87.475 218.814 89.8999 219.274 92.1662 220.191C94.4326 221.107 96.496 222.462 98.2382 224.177C99.9804 225.892 101.367 227.934 102.319 230.186C103.271 232.437 103.77 234.855 103.787 237.299Z" stroke="#020202" stroke-width="3" stroke-linecap="round" stroke-linejoin="round"/>
<path d="M92.0682 237.381C92.0761 238.285 91.9056 239.181 91.5666 240.019C91.2276 240.857 90.7267 241.62 90.0925 242.263C89.4583 242.907 88.7033 243.42 87.8708 243.772C87.0383 244.123 86.1445 244.307 85.2408 244.313C84.337 244.321 83.4406 244.151 82.6028 243.812C81.765 243.473 81.0023 242.972 80.3584 242.338C79.7145 241.704 79.202 240.949 78.8502 240.116C78.4984 239.284 78.3143 238.39 78.3084 237.486C78.3015 236.583 78.4726 235.687 78.8119 234.849C79.1513 234.012 79.6523 233.25 80.2862 232.606C80.9202 231.962 81.6748 231.45 82.5069 231.097C83.339 230.745 84.2322 230.561 85.1357 230.554C86.0392 230.547 86.9352 230.718 87.7726 231.057C88.61 231.397 89.3722 231.898 90.016 232.532C90.6597 233.166 91.1722 233.92 91.5243 234.752C91.8765 235.584 92.0613 236.478 92.0682 237.381Z" fill="white" stroke="#020202" stroke-width="3" stroke-linecap="round" stroke-linejoin="round"/>
<path d="M85.0682 221.641L85.0232 214.761L85.0682 221.641Z" fill="white" stroke="#020202" stroke-width="3" stroke-linecap="round" stroke-linejoin="round"/>
<path d="M85.3086 253.236L85.3611 260.115L85.3086 253.236Z" fill="white" stroke="#020202" stroke-width="3" stroke-linecap="round" stroke-linejoin="round"/>
<path d="M100.989 237.315L107.876 237.263L100.989 237.315Z" fill="white" stroke="#020202" stroke-width="3" stroke-linecap="round" stroke-linejoin="round"/>
<path d="M69.3873 237.558L62.5074 237.611L69.3873 237.558Z" fill="white" stroke="#020202" stroke-width="3" stroke-linecap="round" stroke-linejoin="round"/>
<path d="M125.577 176.728C131.77 169.965 131.308 159.463 124.545 153.27C117.782 147.078 107.28 147.54 101.087 154.303C94.8946 161.065 95.3569 171.568 102.12 177.76C108.882 183.953 119.385 183.491 125.577 176.728Z" fill="#A9BAE6"/>
<path d="M125.577 176.728C131.77 169.965 131.308 159.463 124.545 153.27C117.782 147.078 107.28 147.54 101.087 154.303C94.8946 161.065 95.3569 171.568 102.12 177.76C108.882 183.953 119.385 183.491 125.577 176.728Z" stroke="#020202" stroke-width="3" stroke-miterlimit="10"/>
<path d="M113.428 177.084C119.805 177.084 124.975 171.915 124.975 165.538C124.975 159.161 119.805 153.991 113.428 153.991C107.051 153.991 101.882 159.161 101.882 165.538C101.882 171.915 107.051 177.084 113.428 177.084Z" fill="white"/>
<path d="M109.639 162.439C111.022 161.809 112.249 160.882 113.232 159.723H114.05V171.36" stroke="black" stroke-width="3" stroke-linecap="round"/>
<path d="M237.851 192.461C237.851 196.687 236.172 200.741 233.183 203.729C230.195 206.718 226.142 208.396 221.915 208.396C217.69 208.394 213.639 206.715 210.652 203.726C207.665 200.738 205.987 196.686 205.987 192.461C205.987 188.236 207.665 184.184 210.652 181.196C213.639 178.207 217.69 176.527 221.915 176.525C226.141 176.527 230.193 178.207 233.181 181.195C236.169 184.183 237.849 188.235 237.851 192.461Z" fill="#5EA500"/>
<path d="M216.896 197.252C216.897 197.775 217.005 198.293 217.214 198.773C217.423 199.253 217.728 199.685 218.111 200.042C218.493 200.399 218.945 200.674 219.438 200.85C219.931 201.026 220.455 201.098 220.977 201.063H222.801C228.052 201.063 228.9 192.811 222.801 192.901L220.977 192.728C215.628 192.773 215.561 184.588 220.977 184.565H222.801C225.532 184.565 227.04 186.336 227.04 188.376" stroke="#050505" stroke-width="3" stroke-linecap="round" stroke-linejoin="round"/>
<path d="M221.922 180.919V204.35" stroke="#050505" stroke-width="3" stroke-linecap="round" stroke-linejoin="round"/>
<path d="M487.839 51.5072C487.696 51.5072 487.554 51.4788 487.421 51.4237C487.289 51.3685 487.168 51.2877 487.067 51.1859C486.966 51.0841 486.886 50.9633 486.832 50.8305C486.778 50.6976 486.75 50.5554 486.751 50.4119V46.9156C486.751 46.6264 486.866 46.3489 487.069 46.1437C487.273 45.9385 487.55 45.8222 487.839 45.8203H492.498C492.788 45.8222 493.066 45.9383 493.271 46.1433C493.476 46.3483 493.592 46.6257 493.594 46.9156V50.4119C493.595 50.5554 493.567 50.6976 493.513 50.8305C493.459 50.9633 493.379 51.0841 493.278 51.1859C493.177 51.2877 493.056 51.3685 492.924 51.4237C492.791 51.4788 492.649 51.5072 492.506 51.5072H487.839Z" fill="#A9BAE6"/>
<path d="M462.931 26.5857C462.932 26.7325 462.962 26.8776 463.02 27.0125C463.077 27.1474 463.161 27.2695 463.267 27.3715C463.373 27.4735 463.497 27.5534 463.634 27.6066C463.771 27.6598 463.917 27.6851 464.064 27.6811H467.567C467.711 27.6811 467.853 27.6527 467.985 27.5976C468.118 27.5424 468.238 27.4616 468.339 27.3598C468.44 27.258 468.52 27.1372 468.575 27.0043C468.629 26.8715 468.656 26.7292 468.655 26.5857V21.9342C468.656 21.7907 468.629 21.6484 468.575 21.5155C468.52 21.3827 468.44 21.2619 468.339 21.16C468.238 21.0582 468.118 20.9774 467.985 20.9223C467.853 20.8672 467.711 20.8388 467.567 20.8388H464.064C463.92 20.8388 463.778 20.8672 463.646 20.9223C463.513 20.9774 463.393 21.0582 463.292 21.16C463.191 21.2619 463.111 21.3827 463.056 21.5155C463.002 21.6484 462.975 21.7907 462.976 21.9342L462.931 26.5857Z" fill="#A9BAE6"/>
<path d="M478.709 30.1461C478.416 30.4473 478.252 30.8511 478.252 31.2715C478.252 31.6919 478.416 32.0957 478.709 32.3968L482.363 36.0431C482.664 36.3364 483.068 36.5005 483.488 36.5005C483.909 36.5005 484.312 36.3364 484.614 36.0431L489.468 31.1889C489.761 30.8877 489.925 30.4839 489.925 30.0635C489.925 29.6431 489.761 29.2393 489.468 28.9381L485.814 25.2844C485.512 24.9928 485.108 24.8299 484.689 24.8299C484.269 24.8299 483.865 24.9928 483.563 25.2844L478.709 30.1461Z" fill="white" stroke="#070707" stroke-width="3" stroke-linecap="round"/>
<path d="M482.955 65.2059C480.765 67.3957 478.166 69.1328 475.305 70.3179C472.444 71.5031 469.377 72.113 466.281 72.113C463.184 72.113 460.117 71.5031 457.256 70.3179C454.395 69.1328 451.796 67.3957 449.606 65.2059C447.416 63.0163 445.679 60.4167 444.494 57.5557C443.309 54.6947 442.699 51.6283 442.699 48.5315C442.699 45.4347 443.309 42.3683 444.494 39.5073C445.679 36.6462 447.416 34.0467 449.606 31.857C454.029 27.4363 460.027 24.9531 466.281 24.9531C472.534 24.9531 478.532 27.4363 482.955 31.857C487.376 36.2802 489.859 42.2779 489.859 48.5315C489.859 54.7851 487.376 60.7827 482.955 65.2059Z" fill="#A9BAE6"/>
<path d="M482.955 65.2059C480.765 67.3957 478.166 69.1328 475.305 70.3179C472.444 71.5031 469.377 72.113 466.281 72.113C463.184 72.113 460.117 71.5031 457.256 70.3179C454.395 69.1328 451.796 67.3957 449.606 65.2059C447.416 63.0163 445.679 60.4167 444.494 57.5557C443.309 54.6947 442.699 51.6283 442.699 48.5315C442.699 45.4347 443.309 42.3683 444.494 39.5073C445.679 36.6462 447.416 34.0467 449.606 31.857C454.029 27.4363 460.027 24.9531 466.281 24.9531C472.534 24.9531 478.532 27.4363 482.955 31.857C487.376 36.2802 489.859 42.2779 489.859 48.5315C489.859 54.7851 487.376 60.7827 482.955 65.2059Z" stroke="#070707" stroke-width="3" stroke-linecap="round"/>
<path d="M479.362 61.569C477.645 63.2871 475.606 64.6502 473.362 65.5801C471.119 66.51 468.714 66.9887 466.285 66.9887C463.856 66.9887 461.451 66.51 459.207 65.5801C456.963 64.6502 454.925 63.2871 453.208 61.569C451.49 59.8522 450.127 57.8136 449.197 55.5698C448.267 53.326 447.788 50.9209 447.788 48.492C447.788 46.0631 448.267 43.6581 449.197 41.4143C450.127 39.1704 451.49 37.1318 453.208 35.415C454.925 33.6969 456.963 32.3339 459.207 31.4039C461.451 30.474 463.856 29.9954 466.285 29.9954C468.714 29.9954 471.119 30.474 473.362 31.4039C475.606 32.3339 477.645 33.6969 479.362 35.415C481.08 37.1318 482.443 39.1704 483.373 41.4143C484.303 43.6581 484.781 46.0631 484.781 48.492C484.781 50.9209 484.303 53.326 483.373 55.5698C482.443 57.8136 481.08 59.8522 479.362 61.569Z" fill="white"/>
<path d="M465.73 36.91L466.397 48.6215" stroke="#070707" stroke-width="3" stroke-linecap="round"/>
<path d="M474.11 48.0184L466.292 48.3335L466.345 47.8158" fill="white"/>
<path d="M474.11 48.0184L466.292 48.3335L466.345 47.8158" stroke="#070707" stroke-width="3" stroke-linecap="round"/>
<path d="M467.928 50.0899C467.492 50.5252 466.901 50.7696 466.285 50.7696C465.669 50.7696 465.078 50.5252 464.642 50.0899C464.425 49.8745 464.253 49.6185 464.136 49.3365C464.019 49.0545 463.959 48.7522 463.959 48.4469C463.959 48.1415 464.019 47.8392 464.136 47.5572C464.253 47.2752 464.425 47.0192 464.642 46.8038C465.078 46.3686 465.669 46.1241 466.285 46.1241C466.901 46.1241 467.492 46.3686 467.928 46.8038C468.363 47.2398 468.608 47.8308 468.608 48.4469C468.608 49.063 468.363 49.6539 467.928 50.0899Z" fill="#A9BAE6"/>
<path d="M476.345 38.38L474.425 40.3082" stroke="#070707" stroke-width="3" stroke-linecap="round"/>
<path d="M456.223 58.5071L458.152 56.5864" stroke="#070707" stroke-width="3" stroke-linecap="round"/>
<path d="M476.345 58.5071L474.425 56.5864" stroke="#070707" stroke-width="3" stroke-linecap="round"/>
<path d="M456.231 38.38L458.152 40.3007" stroke="#070707" stroke-width="3" stroke-linecap="round"/>
<path d="M483.926 17.1654L480.154 20.9373L493.836 34.6192L497.608 30.8473L483.926 17.1654Z" fill="white" stroke="#070707" stroke-width="3" stroke-linecap="round"/>
<path d="M372.172 41.322C372.739 41.8604 373.494 42.1562 374.276 42.1464C375.058 42.1366 375.805 41.8219 376.359 41.2695L388.025 29.603C388.918 28.7027 389.03 27.7874 388.235 26.9921L386.66 25.4166C385.647 24.4037 384.746 24.4937 383.831 25.4166L372.165 37.0906C371.604 37.6379 371.283 38.3856 371.273 39.1692C371.263 39.9528 371.565 40.7083 372.112 41.2695L372.172 41.322Z" fill="#A9BAE6" stroke="#010200" stroke-width="3"/>
<path d="M379.285 17.973C379.285 22.2073 380.967 26.2681 383.961 29.2623C386.955 32.2564 391.016 33.9384 395.25 33.9384C399.485 33.9384 403.546 32.2564 406.54 29.2623C409.534 26.2681 411.216 22.2073 411.216 17.973C411.216 13.738 409.534 9.6763 406.54 6.681C403.546 3.6857 399.485 2.00199 395.25 2C393.153 2 391.077 2.4132 389.139 3.21601C387.201 4.01882 385.441 5.19548 383.959 6.6788C382.476 8.16213 381.3 9.92307 380.498 11.861C379.696 13.7988 379.284 15.8757 379.285 17.973Z" fill="white" stroke="black" stroke-width="3" stroke-linecap="round" stroke-linejoin="round"/>
<path d="M383.614 17.9704C383.614 21.0625 384.842 24.0281 387.029 26.2146C389.215 28.401 392.181 29.6294 395.273 29.6294C398.365 29.6294 401.33 28.401 403.517 26.2146C405.703 24.0281 406.932 21.0625 406.932 17.9704C406.932 14.8782 405.703 11.9127 403.517 9.72625C401.33 7.53977 398.365 6.3114 395.273 6.3114C392.181 6.3114 389.215 7.53977 387.029 9.72625C384.842 11.9127 383.614 14.8782 383.614 17.9704Z" fill="#A9BAE6"/>
<path d="M402.423 17.2469C402.437 17.4413 402.52 17.6241 402.658 17.7619C402.796 17.8997 402.979 17.9832 403.173 17.9971C403.366 17.9875 403.547 17.9042 403.68 17.7646C403.812 17.6249 403.886 17.4395 403.886 17.2469C403.7 15.216 402.806 13.315 401.361 11.8764C399.915 10.4377 398.01 9.55296 395.978 9.37669C395.878 9.36879 395.777 9.38277 395.682 9.41768C395.587 9.45259 395.502 9.5076 395.43 9.57891C395.359 9.65022 395.304 9.73611 395.269 9.83072C395.234 9.92533 395.22 10.0264 395.228 10.127C395.243 10.3208 395.327 10.5027 395.465 10.6402C395.602 10.7777 395.784 10.8618 395.978 10.8772C397.62 11.0392 399.156 11.7605 400.329 12.9201C401.503 14.0797 402.242 15.6072 402.423 17.2469Z" fill="white"/>
<path d="M279.498 278.313L240.237 221.849L201.366 278.313H279.498Z" fill="white"/>
<path d="M240.237 221.849L236.545 228.503L271.057 278.313H279.498L240.237 221.849Z" fill="#3381E0"/>
<path d="M252.698 245.217L245.804 244.632L242.18 252.427L234.685 242.974L223.979 245.457L240.237 224.082L252.698 245.217Z" fill="#DEDEDE"/>
<path d="M279.498 278.313L240.237 221.849L201.366 278.313H279.498Z" stroke="black" stroke-width="3" stroke-miterlimit="10"/>
<path d="M252.698 239.997L244.76 239.495L241.819 246.194L235.735 238.077L227.002 241.07L240.236 221.849L252.698 239.997Z" fill="white"/>
<path d="M252.698 239.997L244.76 239.495L238.818 246.194L235.735 238.077L227.002 241.07L240.236 221.849L252.698 239.997Z" stroke="black" stroke-width="3" stroke-miterlimit="10"/>
<path d="M343.115 278.308L311.612 232.91L280.266 278.308H343.115Z" fill="white"/>
<path d="M311.612 232.91L307.463 238.92L334.795 278.308H343.115L311.612 232.91Z" fill="#DEDEDE"/>
<path d="M323.661 250.271L311.612 232.91L300.996 248.291L303.336 251.659L309.158 247.878L315.993 257.061L323.661 250.271Z" fill="#DEDEDE"/>
<path d="M343.115 278.308L311.612 232.91L280.266 278.308H343.115Z" stroke="black" stroke-width="3" stroke-miterlimit="10"/>
<path d="M311.612 232.91L320.194 245.29L314.793 250.076L310.126 243.804L306.15 246.385L304.221 243.609L311.612 232.91Z" fill="white" stroke="black" stroke-width="3" stroke-miterlimit="10"/>
<path d="M319.013 278.3L271.11 209.284L223.461 278.3H319.013Z" fill="white"/>
<path d="M271.11 209.284L265.243 217.784L307.242 278.3H319.014L271.11 209.284Z" fill="#DEDEDE"/>
<path d="M292.875 240.699L279.01 250.669L272.205 238.995L268.454 244.532L264.087 240.841L254.754 252.463L248.159 242.552L271.252 215.377L292.875 240.699Z" fill="#DEDEDE"/>
<path d="M288.688 234.613L279.22 243.796L273 232.902L267.943 238.349L263.494 234.748L255.399 246.377L252.346 236.466L271.11 209.284L288.688 234.613Z" fill="white" stroke="black" stroke-width="3" stroke-miterlimit="10"/>
<path d="M319.013 278.3L271.11 209.284L223.461 278.3H319.013Z" stroke="black" stroke-width="3" stroke-miterlimit="10"/>
<path d="M271.112 209.288V196.399" stroke="black" stroke-width="3" stroke-miterlimit="10" stroke-linecap="round"/>
<path d="M285.919 195.11H269.984V203.828H285.919L280.562 199.469L285.919 195.11Z" fill="#5EA500"/>
<path d="M432.069 114H527.802C531.706 114 534.871 117.165 534.871 121.069V258.391C534.871 262.295 531.706 265.46 527.802 265.46H432.069C428.165 265.46 425 262.295 425 258.391V121.069C425 117.165 428.165 114 432.069 114Z" fill="#A9BAE6" stroke="#070707" stroke-width="2"/>
<path d="M527.854 124.21H435.776V257.964H527.854V124.21Z" fill="#F6F5F5"/>
<path d="M527.854 124.21C527.882 176.366 529.566 239.27 523.707 253.2C497.903 255.714 467.687 256.521 435.775 256.674L447.905 124.612L527.854 124.21Z" fill="#E4E4E4"/>
<path d="M517.907 249.767C477.685 256.205 450.806 256.545 429 254.926C431.823 224.85 432.959 174.885 434.103 125L482.571 125.109L526.436 128.004C527.069 179.778 527.14 227.604 517.907 249.767Z" fill="white"/>
<path d="M505.37 137.689L456.932 136.548L456.758 143.926L505.196 145.067L505.37 137.689Z" fill="#171717"/>
<path d="M514.707 155.743L471.016 154.713L470.936 158.09L514.628 159.12L514.707 155.743Z" fill="#171717"/>
<path d="M500.539 162.776L470.842 162.076L470.762 165.453L500.46 166.153L500.539 162.776Z" fill="#D3DFFF"/>
<path d="M457.248 154.58L446.905 154.336L446.661 164.68L457.004 164.923L457.248 154.58Z" fill="white"/>
<path d="M449.02 159.137C449.411 160.762 450.133 167.571 453.276 165.667C454.001 165.234 454.614 164.068 455.157 163.399L458.083 159.8L463.927 152.597C464.427 151.982 462.222 150.44 461.595 151.212L456.4 157.613L453.803 160.814C453.201 161.555 451.807 163.942 450.92 164.154L452.374 164.664C452.717 164.968 452.08 162.806 452.066 162.747C451.825 161.743 451.584 160.739 451.341 159.735C451.141 158.906 448.73 157.909 449.025 159.137H449.02Z" fill="#5EA500"/>
<path d="M506.552 174.364L470.573 173.516L470.493 176.893L506.473 177.741L506.552 174.364Z" fill="#171717"/>
<path d="M514.533 181.07L470.829 180.196L470.762 183.574L514.465 184.448L514.533 181.07Z" fill="#D3DFFF"/>
<path d="M456.805 173.396L446.462 173.152L446.218 183.496L456.561 183.739L456.805 173.396Z" fill="white"/>
<path d="M448.02 178.138C448.411 179.763 449.133 186.57 452.276 184.667C453.001 184.234 453.614 183.068 454.157 182.4L457.083 178.799L462.927 171.6C463.427 170.985 461.222 169.435 460.595 170.214L455.4 176.615L452.803 179.814C452.201 180.554 450.807 182.943 449.92 183.155L451.374 183.664C451.717 183.969 451.08 181.807 451.067 181.748C450.825 180.744 450.583 179.74 450.342 178.736C450.141 177.908 447.73 176.91 448.025 178.138H448.02Z" fill="#5EA500"/>
<path d="M513.82 193.356L470.129 192.326L470.049 195.703L513.741 196.733L513.82 193.356Z" fill="#171717"/>
<path d="M489.495 200.149L469.956 199.688L469.876 203.065L489.416 203.526L489.495 200.149Z" fill="#D3DFFF"/>
<path d="M456.363 192.192L446.019 191.949L445.775 202.292L456.119 202.536L456.363 192.192Z" fill="white"/>
<path d="M448.025 197.137C448.416 198.762 449.138 205.571 452.28 203.667C453.005 203.234 453.618 202.068 454.159 201.399L457.084 197.8L462.927 190.597C463.427 189.982 461.222 188.44 460.596 189.212L455.401 195.613L452.8 198.814C452.199 199.555 450.806 201.942 449.919 202.154L451.373 202.664C451.715 202.968 451.079 200.806 451.065 200.747C450.825 199.744 450.583 198.74 450.34 197.735C450.141 196.906 447.729 195.909 448.025 197.137Z" fill="#5EA500"/>
<path d="M513.927 211.32L470.223 210.446L470.156 213.824L513.859 214.698L513.927 211.32Z" fill="#171717"/>
<path d="M504.028 219.298L469.513 218.485L469.434 221.862L503.948 222.675L504.028 219.298Z" fill="#D3DFFF"/>
<path d="M455.918 211.002L445.575 210.758L445.331 221.102L455.675 221.346L455.918 211.002Z" fill="white"/>
<path d="M447.013 216.142C447.405 217.767 448.127 224.57 451.272 222.667C451.997 222.234 452.61 221.069 453.152 220.402L456.08 216.796L461.927 209.599C462.427 208.985 460.221 207.435 459.594 208.214L454.395 214.612L451.804 217.817C451.202 218.557 449.808 220.945 448.92 221.155L450.376 221.665C450.719 221.97 450.082 219.809 450.067 219.75C449.826 218.746 449.584 217.743 449.342 216.74C449.142 215.91 446.728 214.913 447.025 216.142H447.013Z" fill="#5EA500"/>
<path d="M486.565 230.191L469.246 229.783L469.167 233.159L486.485 233.568L486.565 230.191Z" fill="#171717"/>
<path d="M512.769 238.18L469.078 237.152L468.998 240.528C485.902 240.925 507.425 241.716 511.817 241.043C512.484 240.28 512.843 239.349 512.769 238.18Z" fill="#D3DFFF"/>
<path d="M455.624 229.649L445.281 229.405L445.037 239.749L455.38 239.992L455.624 229.649Z" fill="white"/>
<path d="M447.014 234.143C447.413 235.767 448.129 242.57 451.27 240.667C451.994 240.234 452.608 239.069 453.149 238.402L456.075 234.796L461.927 227.6C462.426 226.984 460.222 225.436 459.594 226.214L454.4 232.611L451.802 235.81C451.201 236.55 449.807 238.936 448.92 239.148L450.375 239.657C450.717 239.963 450.081 237.801 450.067 237.743C449.825 236.739 449.583 235.736 449.342 234.733C449.142 233.903 446.73 232.907 447.025 234.136L447.014 234.143Z" fill="#5EA500"/>
<path d="M502.338 118.948V129.276H460.862V118.948C460.861 118.164 461.015 117.388 461.314 116.663C461.614 115.939 462.053 115.281 462.608 114.726C462.741 114.592 462.881 114.466 463.029 114.349C464.096 113.461 465.441 112.977 466.829 112.98C467.885 112.981 468.927 112.743 469.878 112.286C470.281 112.091 470.664 111.86 471.025 111.595C472.236 110.699 473.127 109.436 473.565 107.995C474.005 106.55 474.898 105.284 476.111 104.385C477.325 103.486 478.795 103 480.306 103H482.894C484.405 103 485.875 103.486 487.089 104.385C488.302 105.284 489.195 106.55 489.635 107.995C490.073 109.44 490.965 110.706 492.18 111.604C492.54 111.868 492.924 112.1 493.326 112.294C494.278 112.752 495.32 112.99 496.375 112.989C497.955 112.991 499.47 113.62 500.588 114.737C501.705 115.854 502.335 117.368 502.338 118.948Z" fill="#171717"/>
<path d="M505.704 124.21V131.884H457.496V124.21H460.862V129.278H502.338V124.21H505.704Z" fill="#E4E4E4"/>
<path d="M481.601 112.685C483.633 112.685 485.28 111.12 485.28 109.189C485.28 107.258 483.633 105.693 481.601 105.693C479.569 105.693 477.922 107.258 477.922 109.189C477.922 111.12 479.569 112.685 481.601 112.685Z" fill="white"/>
</svg>
