<svg width="48" height="48" viewBox="0 0 48 48" fill="none" xmlns="http://www.w3.org/2000/svg">
<path d="M13 30H35V42H13V30Z" fill="#BF360C"/>
<path d="M10 30C12.2091 30 14 28.2091 14 26C14 23.7909 12.2091 22 10 22C7.79086 22 6 23.7909 6 26C6 28.2091 7.79086 30 10 30Z" fill="black"/>
<path d="M38 30C40.2091 30 42 28.2091 42 26C42 23.7909 40.2091 22 38 22C35.7909 22 34 23.7909 34 26C34 28.2091 35.7909 30 38 30Z" fill="black"/>
<path d="M39 19C39 6.30002 9 10.7 9 19V29C9 37.3 15.7 44 24 44C32.3 44 39 37.3 39 29V19Z" fill="#FFB74D"/>
<path d="M30 28C31.1046 28 32 27.1046 32 26C32 24.8954 31.1046 24 30 24C28.8954 24 28 24.8954 28 26C28 27.1046 28.8954 28 30 28Z" fill="black"/>
<path d="M18 28C19.1046 28 20 27.1046 20 26C20 24.8954 19.1046 24 18 24C16.8954 24 16 24.8954 16 26C16 27.1046 16.8954 28 18 28Z" fill="black"/>
<path d="M24 2C15.5 2 3 7.8 3 35.6L13 42V24L29.8 14.2L35 21V42L45 33.8C45 28.2 44.1 4.8 29.6 4.8L28.2 2H24Z" fill="#FF5722"/>
<path d="M24 40C25.1046 40 26 39.1046 26 38C26 36.8954 25.1046 36 24 36C22.8954 36 22 36.8954 22 38C22 39.1046 22.8954 40 24 40Z" fill="black"/>
</svg>
